<?xml version="1.0" encoding="UTF-8" standalone="no"?>
<!-- Created with Inkscape (http://www.inkscape.org/) -->

<svg
   width="210mm"
   height="297mm"
   viewBox="0 0 210 297"
   version="1.1"
   id="svg1"
   inkscape:version="1.3.2 (091e20e, 2023-11-25, custom)"
   sodipodi:docname="traveltaleslogo3.svg"
   xml:space="preserve"
   xmlns:inkscape="http://www.inkscape.org/namespaces/inkscape"
   xmlns:sodipodi="http://sodipodi.sourceforge.net/DTD/sodipodi-0.dtd"
   xmlns:xlink="http://www.w3.org/1999/xlink"
   xmlns="http://www.w3.org/2000/svg"
   xmlns:svg="http://www.w3.org/2000/svg"><sodipodi:namedview
     id="namedview1"
     pagecolor="#ffffff"
     bordercolor="#cccccc"
     borderopacity="1"
     inkscape:showpageshadow="0"
     inkscape:pageopacity="1"
     inkscape:pagecheckerboard="0"
     inkscape:deskcolor="#d1d1d1"
     inkscape:document-units="mm"
     inkscape:zoom="1.0520974"
     inkscape:cx="262.80837"
     inkscape:cy="601.18008"
     inkscape:window-width="2560"
     inkscape:window-height="1377"
     inkscape:window-x="1912"
     inkscape:window-y="-8"
     inkscape:window-maximized="1"
     inkscape:current-layer="layer1" /><defs
     id="defs1"><linearGradient
       id="linearGradient23"
       inkscape:collect="always"><stop
         style="stop-color:#5895d1;stop-opacity:1;"
         offset="0"
         id="stop23" /><stop
         style="stop-color:#ba3c8d;stop-opacity:1;"
         offset="0.88328075"
         id="stop24" /></linearGradient><inkscape:path-effect
       effect="spiro"
       id="path-effect20"
       is_visible="true"
       lpeversion="1" /><linearGradient
       id="linearGradient19"
       inkscape:collect="always"><stop
         style="stop-color:#ba3c8d;stop-opacity:1;"
         offset="0"
         id="stop20" /><stop
         style="stop-color:#17097c;stop-opacity:1;"
         offset="0.62460572"
         id="stop19" /></linearGradient><inkscape:path-effect
       effect="spiro"
       id="path-effect15"
       is_visible="true"
       lpeversion="1" /><rect
       x="151.1267"
       y="865.88944"
       width="460.03347"
       height="111.20644"
       id="rect15" /><linearGradient
       id="linearGradient1"
       inkscape:collect="always"><stop
         style="stop-color:#4daeed;stop-opacity:1;"
         offset="0.31230286"
         id="stop1" /><stop
         style="stop-color:#c2f3ff;stop-opacity:1;"
         offset="1"
         id="stop2" /></linearGradient><linearGradient
       inkscape:collect="always"
       xlink:href="#linearGradient1"
       id="linearGradient2"
       x1="60.607117"
       y1="146.86537"
       x2="164.21762"
       y2="158.18205"
       gradientUnits="userSpaceOnUse"
       gradientTransform="matrix(1.4506329,0,0,1.3848101,9.3916584,-169.62563)" /><linearGradient
       inkscape:collect="always"
       xlink:href="#linearGradient19"
       id="linearGradient20"
       x1="66.192477"
       y1="159.19902"
       x2="182.42744"
       y2="159.19902"
       gradientUnits="userSpaceOnUse"
       gradientTransform="matrix(0.70737663,-0.09705707,0.07962099,0.64798495,27.327398,19.984164)" /><linearGradient
       inkscape:collect="always"
       xlink:href="#linearGradient23"
       id="linearGradient25"
       gradientUnits="userSpaceOnUse"
       gradientTransform="matrix(-1.3523605,-0.14032915,0.13423287,0.93673132,156.2935,43.326802)"
       x1="-24.107088"
       y1="88.02109"
       x2="49.918502"
       y2="88.02109" /><linearGradient
       inkscape:collect="always"
       xlink:href="#linearGradient23"
       id="linearGradient27"
       gradientUnits="userSpaceOnUse"
       gradientTransform="matrix(1.3523605,0.14032915,-0.13423287,-0.93673132,52.507975,232.31509)"
       x1="-24.107088"
       y1="88.02109"
       x2="49.918502"
       y2="88.02109" /></defs><g
     inkscape:label="Layer 1"
     inkscape:groupmode="layer"
     id="layer1"><path
       style="fill:#140700;fill-opacity:1;stroke-width:0.251"
       id="path7"
       d="m 171.37898,35.658462 c 0.12556,0.358031 0.24835,0.717044 0.37668,1.074091 0.35005,0.97395 0.9842,2.735078 1.40313,3.603834 1.94022,4.023567 4.51904,7.639265 7.0548,11.297722 2.36735,3.206192 4.85371,6.33412 7.60034,9.226322 0.8008,0.843246 2.07636,2.153253 3.12386,2.828272 0.30844,0.198765 0.67132,0.296481 1.00698,0.444719 0.19524,-0.116697 0.47286,-0.152606 0.58572,-0.350091 0.32606,-0.570513 0.0653,-1.753299 -0.0442,-2.257327 -0.24725,-1.138296 -0.45645,-1.557901 -0.87123,-2.628823 0,0 -8e-4,-5.3e-4 -8e-4,-5.3e-4 v 0 c 0.4148,1.070931 0.62399,1.490494 0.87125,2.628802 0.10946,0.503939 0.37026,1.686764 0.0442,2.257219 -0.11285,0.197459 -0.39044,0.233349 -0.58566,0.350025 -0.33512,-0.147923 -0.69744,-0.245337 -1.00535,-0.443769 -1.04765,-0.675156 -2.32289,-1.984815 -3.12391,-2.828277 -2.74665,-2.892198 -5.23303,-6.020131 -7.60039,-9.22633 -2.53575,-3.658439 -5.11454,-7.274113 -7.05473,-11.297669 -0.41895,-0.868804 -1.05304,-2.629829 -1.4031,-3.603815 -0.12833,-0.357042 -0.25111,-0.716053 -0.37666,-1.074076 z" /><ellipse
       style="fill:url(#linearGradient2);stroke-width:0.355752"
       id="path1"
       cx="169.35986"
       cy="33.755028"
       rx="72.049538"
       ry="71.740433"
       transform="rotate(41.65683)" /><path
       style="fill:#501d00;fill-opacity:1;stroke-width:0.251"
       id="path3"
       d="m 48.977944,163.07191 c -2.378809,-0.11687 -4.762431,-0.0578 -7.14314,-0.0438 -2.17777,-0.0304 -4.358547,0.0282 -6.532734,-0.11447 -2.211044,-0.11678 -4.386769,-0.50626 -6.536965,-1.01605 -2.049209,-0.52644 -4.036242,-1.26646 -5.971667,-2.11541 -1.568826,-0.66113 -3.106907,-1.39641 -4.527313,-2.33817 -1.083737,-0.78315 -2.08222,-1.6763 -3.080973,-2.56319 -0.859319,-0.64294 -1.317431,-1.39002 -1.7014,-2.37523 -0.217126,-0.6376 -0.117124,-0.31976 -0.300916,-0.95322 0,0 -4.13e-4,-7.3e-4 -4.13e-4,-7.3e-4 v 0 c 0.184413,0.63531 0.08418,0.31687 0.301523,0.95507 0.383991,0.98521 0.84213,1.73229 1.701447,2.37522 0.998615,0.88705 1.997534,1.77972 3.080985,2.56319 1.420418,0.94175 2.958503,1.67701 4.527324,2.33815 1.935434,0.84895 3.92247,1.58897 5.971689,2.1154 2.150205,0.50979 4.325929,0.89927 6.536984,1.01604 2.174187,0.14267 4.354959,0.0841 6.532734,0.11447 2.380707,-0.0141 4.764334,-0.0731 7.143139,0.0438 z" /><path
       style="fill:#501d00;fill-opacity:1;stroke-width:0.251"
       id="path4"
       d="m -5.7426982,143.33859 c 0.072184,1.66844 0.6844296,3.2887 1.5416488,4.71223 0.3499167,0.5811 0.7509232,1.12985 1.1263907,1.69477 2.54013741,3.5893 5.461077,6.88192 8.5154416,10.03672 1.1489637,1.10084 2.2444444,2.34154 3.641619,3.14461 0.8033399,0.46178 1.0582411,0.48893 1.9467021,0.77123 1.9419,0.44252 3.946726,0.48254 5.927746,0.38078 0.467472,-0.12133 0.291834,-0.01 0.565523,-0.26469 0,0 -2.41e-4,-9.3e-4 -2.41e-4,-9.3e-4 v 0 c -0.27362,0.25502 -0.09802,0.14334 -0.565447,0.26469 -1.98102,0.10179 -3.985827,0.0617 -5.927712,-0.38079 -0.888466,-0.28229 -1.1433339,-0.30944 -1.9466783,-0.77122 -1.3971288,-0.80312 -2.4926197,-2.04379 -3.6415974,-3.1446 -3.0543623,-3.1548 -5.97530259,-6.44741 -8.5154208,-10.03672 -0.3754623,-0.56492 -0.7764666,-1.11369 -1.1263833,-1.69478 -0.8568989,-1.42303 -1.4689832,-3.04254 -1.5410592,-4.7104 z" /><circle
       id="path5"
       style="fill:#501d00;stroke:#000000;stroke-width:0.264583"
       cx="121.2011"
       cy="110.38885"
       r="7.9444171e-06"
       transform="rotate(41.65683)" /><circle
       id="path6"
       style="fill:#140700;fill-opacity:1;stroke:#000000;stroke-width:0.264583"
       cx="165.46188"
       cy="130.25592"
       r="7.9444171e-06"
       transform="rotate(41.65683)" /><path
       style="fill:url(#linearGradient25);stroke:none;stroke-width:0.280398;stroke-opacity:1"
       d="m 121.6074,67.807801 c 0,0 157.72194,60.227009 26.76649,95.604669 -130.955456,35.37762 113.0655,-36.30572 -26.76649,-95.604669 z"
       id="path22-8" /><path
       style="fill:url(#linearGradient27);stroke:none;stroke-width:0.280398;stroke-opacity:1"
       d="m 87.194075,207.8341 c 0,0 -157.721945,-60.22701 -26.76649,-95.60467 130.955455,-35.377623 -113.065505,36.30572 26.76649,95.60467 z"
       id="path22-8-6" /><path
       style="fill:url(#linearGradient20);stroke-width:0.201179"
       d="m 108.54541,142.03405 -3.17889,-5.91101 -2.26521,-2.05241 -2.26521,-2.05238 -6.430756,-2.71504 c -3.536899,-1.49332 -6.410586,-2.78719 -6.385958,-2.8753 0.02473,-0.0881 0.860815,-0.97017 1.858167,-1.96011 l 1.813333,-1.7999 6.334064,0.88491 c 4.668,0.65212 6.41969,0.81953 6.65966,0.63646 0.17904,-0.1367 3.05668,-2.95876 6.39459,-6.2714 3.33786,-3.31271 8.0162,-7.94414 10.39575,-10.29258 2.37953,-2.34852 4.32042,-4.32132 4.31272,-4.3844 -0.008,-0.0632 -6.51917,-2.5274 -14.4698,-5.476166 -7.9506,-2.948778 -14.588657,-5.430326 -14.751224,-5.514565 -0.211314,-0.109436 0.678658,-0.980378 3.121962,-3.055019 1.879612,-1.596032 3.575522,-2.923547 3.768652,-2.950049 0.19304,-0.02724 3.44136,0.349407 7.21831,0.835379 8.88853,1.143622 27.5835,3.395139 27.86743,3.356173 0.12078,-0.0169 4.20667,-3.976704 9.0797,-8.800306 7.70486,-7.626831 8.99338,-8.819064 9.88281,-9.145414 1.31294,-0.481699 2.72918,-0.374043 4.1833,0.318169 2.23709,1.064785 3.65301,2.823746 3.94804,4.904527 0.31287,2.206183 0.30448,2.216638 -9.54872,11.953087 l -8.77914,8.675065 0.24671,1.091842 c 0.1357,0.600517 0.82561,4.189957 1.53313,7.976517 0.70754,3.78657 2.03884,10.77782 2.95848,15.53611 l 1.67206,8.65141 -2.93275,3.33305 c -1.61302,1.83318 -2.98181,3.34313 -3.04173,3.35542 -0.0599,0.0125 -3.00513,-6.05008 -6.54488,-13.47189 -3.53976,-7.42185 -6.50439,-13.54718 -6.58807,-13.61188 -0.0838,-0.0647 -4.76558,4.47708 -10.40425,10.09285 -5.63867,5.61573 -10.42953,10.36363 -10.64647,10.55073 -0.38955,0.33623 -0.38237,0.39877 0.5968,5.17052 0.54527,2.6566 1.11301,5.37151 1.2617,6.03312 l 0.27031,1.20295 -1.83489,1.82635 c -1.0099,1.00379 -1.90166,1.8352 -1.98298,1.84627 -0.0814,0.0104 -1.5782,-2.63969 -3.32659,-5.89075 z"
       id="path2" /></g></svg>
